<svg xmlns="http://www.w3.org/2000/svg" viewBox="0 0 63.7 53.6">
	<title>
    Kundeservice
  </title>
  <path d="M58 16.1c-1.3-1.3-2.7-2.3-4.3-3.1-.1 0-.1 0-.1-.1-.9-1.4-2-2.8-3.3-4.1-.5-.5-1.2-.5-1.6 0l-.2.2c-.1.1-.2.1-.3.2l-7.5 7.5c-4.9-4.1-12.1-4.1-17 0l-7.1-7c7.6-7 18.8-8.1 27.7-2.6.5.3 1.3.2 1.6-.4.3-.5.2-1.3-.4-1.6-10.1-6.2-23-4.6-31.4 3.8-1.3 1.3-2.4 2.7-3.4 4.1h-.1c-1.6.8-3 1.8-4.3 3.1-3.1 3.1-4.8 7.1-4.8 11.5S3.3 35.9 6.4 39c1.1 1.1 2.4 2.1 3.8 2.8.3.2.7.3 1.1.5.2.1.3.1.5.1h.1c.7.9 1.4 1.8 2.3 2.6 5 5 11.5 7.5 18.1 7.5S45.2 50 50.1 45c.8-.8 1.6-1.7 2.3-2.6h.1c.2 0 .3-.1.5-.1.3-.2.8-.3 1.1-.5 1.4-.8 2.7-1.7 3.8-2.8 3.1-3.1 4.8-7.1 4.8-11.5S61 19.2 58 16.1zm-25.8 0c2.8 0 5.6 1 7.8 3.2 2.1 2.1 3.2 4.8 3.2 7.8S42 32.8 40 34.9c-4.3 4.3-11.2 4.3-15.5 0-2.1-2.1-3.2-4.8-3.2-7.8s1.2-5.7 3.2-7.8c2.1-2.2 4.8-3.2 7.7-3.2zM8 37.4c-2.6-2.6-4-6.1-4-9.8s1.4-7.2 4.1-9.8c.1-.1.3-.2.4-.3-1.2 3-1.9 6.3-1.9 9.6 0 4.1.9 8 2.7 11.5-.4-.4-.9-.8-1.3-1.2zM8.9 27c0-5.9 2.1-11.4 6-15.6l7.1 7.1c-2 2.4-3.1 5.4-3.1 8.6 0 3.1 1.1 6.1 3.1 8.5l-7 7.1c-4-4.4-6.1-9.9-6.1-15.7zm7.6 17.2l7.1-7.1c2.5 2.1 5.5 3.1 8.6 3.1s6.1-1 8.6-3.1l7.1 7.1c-8.9 8.1-22.5 8.1-31.4 0zm32.9-1.6l-7.1-7.1c2-2.4 3.1-5.4 3.1-8.5 0-3.2-1.1-6.1-3.1-8.6l7.1-7.1c8 8.9 8 22.4 0 31.3zm6.9-5.2c-.4.4-.9.8-1.3 1.2 3.4-6.6 3.6-14.4.9-21.3.2.1.3.3.5.4 2.6 2.6 4.1 6.1 4.1 9.8-.1 3.8-1.5 7.3-4.2 9.9z" fill="#e00"/>
</svg>
