<svg width="76" height="44" viewBox="0 0 76 44" xmlns="http://www.w3.org/2000/svg">
  <title>
    Mobilabonnement
  </title>
  <g stroke="#F00" stroke-width="2.4" fill="none" fill-rule="evenodd" stroke-linecap="round" stroke-linejoin="round">
    <path d="M48.186 42.653H28.258c-1.704 0-3.098-1.404-3.098-3.12V5.12c0-1.716 1.394-3.12 3.098-3.12h19.928c1.703 0 3.097 1.404 3.097 3.12v34.412c0 1.717-1.394 3.12-3.097 3.12zM20.703 38.837H4.515C3.132 38.837 2 37.697 2 36.302V8.352c0-1.395 1.132-2.536 2.515-2.536h16.188M55.74 5.816H71.93c1.384 0 2.515 1.14 2.515 2.535v27.952c0 1.394-1.13 2.535-2.515 2.535H55.74M2.752 19.748h17.95M25.192 19.748h25.73M73.692 19.748h-17.95"/>
    <path d="M34.467 30.903l2.842 2.864 6.282-6.33"/>
  </g>
</svg>
