<svg width="21" height="9" viewBox="0 0 21 9" xmlns="http://www.w3.org/2000/svg" xmlns:xlink="http://www.w3.org/1999/xlink">
  <defs>
    <path id="a" d="M0 8.283V0h20.878v8.283z"/>
  </defs>
  <g fill="none" fill-rule="evenodd">
    <mask id="b" fill="#fff">
      <use xlink:href="#a"/>
    </mask>
    <path d="M4.142 6.58c-1.345 0-2.44-1.093-2.44-2.438 0-1.346 1.095-2.44 2.44-2.44s2.44 1.094 2.44 2.44c0 1.345-1.095 2.44-2.44 2.44m15.886-3.178H8.214C7.864 1.47 6.174 0 4.142 0 1.858 0 0 1.858 0 4.142c0 2.283 1.858 4.14 4.142 4.14 1.95 0 3.587-1.357 4.023-3.176h6.076V7.32c0 .373.307.68.68.68h3.18c.373 0 .68-.307.68-.68V5.105h1.248c.47 0 .85-.38.85-.85s-.38-.852-.85-.852" fill="#938D8D" mask="url(#b)"/>
  </g>
</svg>
