<svg width="190" height="101" xmlns="http://www.w3.org/2000/svg">
    <g fill="none" fill-rule="evenodd">
        <path d="M0 17.528C0 7.848 7.848 0 17.528 0H172.26c9.68 0 17.529 7.848 17.529 17.528V62.86c0 9.68-7.848 17.528-17.529 17.528H31.452a15.715 15.715 0 0 0-9.747 3.388L0 100.938v-83.41z" fill="#E00"/>
        <path d="M24.33 49.572l4.966-16.9h2.808l2.288 12.116 7.072-12.116h2.834l-1.612 16.9h-2.392l1.378-13.26-6.396 10.816h-2.548l-2.158-10.92-3.848 13.364H24.33zm21.944-4.706c0-4.316 2.704-7.904 7.098-7.904 3.068 0 4.602 2.08 4.602 4.992 0 4.342-2.73 7.904-7.124 7.904-3.068 0-4.576-2.08-4.576-4.992zm2.392-.234c0 1.976.884 3.224 2.574 3.224 2.652 0 4.342-2.444 4.342-5.642 0-1.976-.91-3.25-2.6-3.25-2.652 0-4.316 2.47-4.316 5.668zM59.69 48.48l3.276-16.77 2.314-.26-1.404 7.15c.962-.988 2.106-1.638 3.536-1.638 2.6 0 4.004 2.028 4.004 4.94 0 4.628-2.886 7.956-7.072 7.956a8.672 8.672 0 0 1-4.654-1.378zm2.522-1.17c.494.26 1.3.546 2.418.546 2.73 0 4.394-2.47 4.394-5.824 0-1.976-.806-3.068-2.236-3.068-1.326 0-2.574 1.066-3.406 2.314l-1.17 6.032zM76.98 34.856c-.728 0-1.222-.52-1.222-1.196 0-.884.832-1.664 1.768-1.664.702 0 1.17.52 1.17 1.196 0 .91-.806 1.664-1.716 1.664zm-4.03 14.716l2.392-12.324h2.288l-2.392 12.324H72.95zm6.5-3.328l2.886-14.794h2.288L81.79 46.036c-.26 1.326.156 1.872 1.43 1.872l-.546 1.95c-2.548 0-3.718-1.17-3.224-3.614zm11.362 3.77l2.132-10.972h-2.262l.338-1.794h2.288l.416-2.158c.442-2.314 2.288-3.926 4.628-3.926.91 0 1.742.156 2.444.468l-.702 1.846c-.494-.208-1.04-.286-1.69-.286-1.222 0-2.132.624-2.418 2.08l-.39 1.976h2.99l-.52 1.794h-2.834l-2.158 11.154c-.65 3.302-2.08 4.498-5.538 4.498l.078-2.054c2.158 0 2.808-.598 3.198-2.626zm7.904-5.148c0-4.316 2.704-7.904 7.098-7.904 3.068 0 4.602 2.08 4.602 4.992 0 4.342-2.73 7.904-7.124 7.904-3.068 0-4.576-2.08-4.576-4.992zm2.392-.234c0 1.976.884 3.224 2.574 3.224 2.652 0 4.342-2.444 4.342-5.642 0-1.976-.91-3.25-2.6-3.25-2.652 0-4.316 2.47-4.316 5.668zm10.816 4.94l2.392-12.324h1.872l-.182 2.002h.104c.754-1.17 2.08-2.288 3.614-2.288.598 0 1.014.052 1.352.208l-.728 1.924a3.25 3.25 0 0 0-.936-.13c-1.508 0-3.328 1.69-3.874 3.796l-1.326 6.812h-2.288zm14.118-4.732c0-4.498 2.86-8.034 7.592-8.034 1.716 0 3.484.572 4.81 1.378l-2.21 11.388h-2.756v-1.274h-.104c-.832 1.014-1.872 1.56-3.302 1.56-2.652 0-4.03-2.184-4.03-5.018zm5.122 1.95c.858 0 1.664-.598 2.314-1.456l1.014-5.252a4.129 4.129 0 0 0-1.3-.208c-2.236 0-3.38 2.158-3.38 4.758 0 1.56.572 2.158 1.352 2.158zm8.788-.988l2.782-14.352h3.588l-2.73 14.066c-.208 1.014 0 1.326 1.04 1.326l-.806 3.016c-3.12 0-4.446-1.066-3.874-4.056zm6.916 0l2.782-14.352h3.588l-2.73 14.066c-.208 1.014 0 1.326 1.04 1.326l-.806 3.016c-3.12 0-4.446-1.066-3.874-4.056zm6.63-1.066c0-4.134 2.704-7.93 7.228-7.93 3.276 0 4.29 1.898 4.29 3.692 0 1.794-1.82 3.978-7.722 4.212.078 1.43.65 2.08 1.846 2.08.962 0 2.314-.26 3.874-1.092l.884 2.626c-1.794 1.118-3.692 1.534-5.46 1.534-3.51 0-4.94-2.236-4.94-5.122zm4.056-2.392c2.6-.13 3.848-.598 3.848-1.586 0-.546-.364-.884-.936-.884-1.56 0-2.496 1.04-2.912 2.47z" fill="#FFF" fill-rule="nonzero"/>
    </g>
</svg>
